<?xml version="1.0" standalone="no"?>
<!DOCTYPE svg PUBLIC "-//W3C//DTD SVG 20010904//EN"
 "http://www.w3.org/TR/2001/REC-SVG-20010904/DTD/svg10.dtd">
<svg version="1.0" xmlns="http://www.w3.org/2000/svg"
 width="600.000000pt" height="600.000000pt" viewBox="0 0 600.000000 600.000000"
 preserveAspectRatio="xMidYMid meet">
<metadata>
Created by potrace 1.14, written by Peter Selinger 2001-2017
</metadata>
<g transform="translate(0.000000,600.000000) scale(0.100000,-0.100000)"
fill="#000000" stroke="none">
<path d="M3735 5510 c-235 -20 -510 -87 -907 -221 -246 -84 -374 -109 -542
-109 -311 1 -623 80 -1183 299 l-73 29 0 -2334 c0 -1617 3 -2348 11 -2383 25
-116 138 -245 259 -294 l55 -22 1600 -3 c1199 -2 1614 0 1655 9 116 24 231
112 283 216 61 119 57 -40 57 2406 l0 2234 -72 31 c-249 104 -459 142 -813
147 -132 2 -280 0 -330 -5z m551 -1246 c59 -28 66 -56 72 -266 6 -220 -2 -275
-60 -403 -78 -175 -151 -287 -397 -614 -179 -239 -305 -378 -437 -483 -92 -73
-164 -121 -171 -115 -8 8 34 127 92 264 52 122 166 339 233 443 112 175 269
394 354 491 62 73 82 120 73 175 -7 51 -33 86 -79 108 -81 38 -132 15 -272
-121 -331 -321 -581 -683 -745 -1078 l-33 -80 -9 45 c-10 57 -2 223 17 320 34
177 165 459 319 685 255 374 553 581 913 634 87 13 93 12 130 -5z m-348 -524
c2 -19 -16 -49 -69 -115 -246 -308 -413 -572 -551 -870 -120 -259 -187 -490
-233 -800 -48 -320 -52 -334 -97 -335 -27 0 -45 37 -69 135 -89 372 111 993
481 1492 95 129 224 276 357 408 104 103 120 116 147 113 25 -2 32 -8 34 -28z
m-1063 -487 c-5 -10 -20 -52 -35 -93 l-28 -75 -273 -3 c-151 -1 -289 0 -308 3
-49 9 -81 46 -81 93 0 40 12 63 45 80 13 8 132 11 354 12 314 0 333 -1 326
-17z m-108 -495 c0 -95 7 -236 16 -313 14 -124 14 -147 0 -205 -8 -37 -16
-140 -19 -240 -4 -147 -2 -188 14 -260 10 -47 22 -93 26 -102 8 -17 -16 -18
-428 -18 -473 0 -482 1 -524 54 -11 15 -24 41 -27 59 -12 58 -47 172 -56 182
-5 5 -9 17 -9 26 0 9 -13 59 -30 110 -16 52 -35 121 -41 154 -6 33 -23 100
-36 148 -30 105 -26 141 20 184 54 52 267 148 417 188 118 32 160 75 160 164
l0 41 259 0 259 0 -1 -172z"/>
</g>
</svg>
